<svg width="220" height="42" viewBox="0 0 220 42" fill="none" xmlns="http://www.w3.org/2000/svg">
<path fill-rule="evenodd" clip-rule="evenodd" d="M18.614 38.137C14.2298 34.8991 10.637 30.709 8.106 25.882C8.31187 25.4953 8.38901 25.053 8.32622 24.6194C8.26343 24.1858 8.06397 23.7835 7.75685 23.4711C7.44974 23.1587 7.05099 22.9523 6.61855 22.8821C6.18611 22.8119 5.74252 22.8814 5.35231 23.0806C4.96211 23.2798 4.64561 23.5983 4.44884 23.9897C4.25206 24.3811 4.18529 24.8251 4.2582 25.2571C4.3311 25.6891 4.53987 26.0866 4.8542 26.3918C5.16854 26.6969 5.57203 26.8939 6.006 26.954C9.16643 33.0448 13.9341 38.1542 19.792 41.728C20.192 41.4913 20.586 41.2463 20.974 40.993V35.262L21.298 34.992C25.2064 31.6772 28.325 27.5313 30.426 22.857H27.816C25.8862 26.8184 23.1533 30.3349 19.791 33.183C19.387 32.8497 18.993 32.5027 18.609 32.142V38.142L18.614 38.137ZM17.096 30.621V33.944C13.3462 30.4187 10.413 26.1158 8.502 21.337H3.51399C1.56186 15.9365 0.668902 10.2104 0.883989 4.47199C4.92198 3.24868 9.02335 2.24522 13.17 1.46601C13.3543 1.06782 13.6609 0.738853 14.0452 0.527072C14.4295 0.315291 14.8713 0.231761 15.3064 0.288608C15.7415 0.345455 16.147 0.539707 16.4639 0.843112C16.7809 1.14652 16.9927 1.5432 17.0685 1.97538C17.1443 2.40755 17.0801 2.85264 16.8853 3.24579C16.6905 3.63895 16.3753 3.95963 15.9855 4.16114C15.5958 4.36264 15.1518 4.43444 14.7184 4.36606C14.285 4.29768 13.8848 4.09272 13.576 3.78101C10.0757 4.41142 6.61353 5.23804 3.20598 6.25699C3.21815 10.5722 3.88889 14.8602 5.19499 18.973H10.115C11.637 23.2847 14.0111 27.246 17.096 30.621ZM9.60399 17.45C8.81891 14.949 8.29183 12.3743 8.03099 9.76599C13.331 8.39399 17.064 7.78501 20.974 7.94001V3.25C26.09 3.45 31.435 4.85601 36.381 6.25901C36.3739 8.68632 36.1584 11.1085 35.737 13.499C35.3323 13.6674 34.9919 13.9605 34.7654 14.3358C34.5389 14.711 34.438 15.1488 34.4774 15.5853C34.5169 16.0219 34.6946 16.4344 34.9848 16.7629C35.2749 17.0915 35.6624 17.3188 36.0907 17.412C36.519 17.5051 36.9659 17.4591 37.3662 17.2806C37.7666 17.1022 38.0996 16.8007 38.3167 16.4199C38.5338 16.0392 38.6238 15.5991 38.5735 15.1636C38.5232 14.7282 38.3352 14.3202 38.037 13.999C38.5981 10.8569 38.8207 7.66361 38.701 4.474C29.68 1.893 24.279 0.700008 18.607 0.893008V5.608C14.8262 5.82193 11.0805 6.45241 7.438 7.48801L5.48699 7.99298L5.687 9.999C5.93733 12.5248 6.4231 15.0216 7.13799 17.457L9.60399 17.45ZM31.09 21.332H28.531C30.1409 17.6579 31.1614 13.753 31.555 9.76099C28.588 8.93488 25.5576 8.35656 22.495 8.03199V5.69001C25.7576 6.0056 28.9865 6.60485 32.145 7.48099L34.096 7.986L33.896 9.99201C33.5932 13.0471 32.9461 16.0582 31.967 18.968H36.856C34.9305 25.5481 31.4024 31.5477 26.588 36.429C26.6019 36.5264 26.6089 36.6246 26.609 36.723C26.6084 37.1478 26.4762 37.5621 26.2306 37.9088C25.985 38.2554 25.638 38.5175 25.2374 38.6589C24.8368 38.8003 24.4022 38.8142 23.9934 38.6986C23.5846 38.5829 23.2216 38.3435 22.9545 38.0131C22.6873 37.6828 22.529 37.2778 22.5014 36.8539C22.4737 36.4299 22.5781 36.0078 22.8002 35.6456C23.0222 35.2834 23.351 34.9989 23.7414 34.8312C24.1317 34.6634 24.5644 34.6208 24.98 34.709C27.7544 31.9096 30.0722 28.6921 31.849 25.174C32.4856 23.9232 33.0574 22.6406 33.562 21.331H31.086L31.09 21.332ZM24.554 35.905C24.716 35.905 24.8743 35.953 25.009 36.043C25.1437 36.133 25.2487 36.2609 25.3107 36.4106C25.3726 36.5602 25.3889 36.7249 25.3573 36.8838C25.3257 37.0426 25.2476 37.1886 25.1331 37.3031C25.0186 37.4176 24.8726 37.4957 24.7138 37.5273C24.5549 37.5589 24.3902 37.5426 24.2406 37.4807C24.0909 37.4187 23.963 37.3137 23.873 37.179C23.783 37.0443 23.735 36.886 23.735 36.724C23.735 36.5068 23.8213 36.2985 23.9749 36.1449C24.1285 35.9913 24.3368 35.905 24.554 35.905ZM7.10799 24.905C7.10819 25.067 7.06032 25.2255 6.97045 25.3603C6.88057 25.4951 6.75274 25.6002 6.60311 25.6624C6.45347 25.7245 6.28877 25.7409 6.12984 25.7094C5.9709 25.6779 5.82486 25.6 5.71022 25.4855C5.59558 25.371 5.51748 25.225 5.4858 25.0661C5.45411 24.9072 5.47028 24.7425 5.53224 24.5928C5.5942 24.4431 5.69917 24.3151 5.83388 24.2251C5.96858 24.1351 6.12696 24.087 6.28899 24.087C6.50603 24.087 6.71419 24.1731 6.86775 24.3265C7.02132 24.4799 7.10772 24.688 7.10799 24.905ZM35.717 15.39C35.7168 15.228 35.7647 15.0695 35.8545 14.9347C35.9444 14.7999 36.0722 14.6948 36.2219 14.6326C36.3715 14.5705 36.5362 14.5541 36.6951 14.5856C36.8541 14.6171 37.0001 14.695 37.1148 14.8095C37.2294 14.924 37.3075 15.07 37.3392 15.2289C37.3709 15.3878 37.3547 15.5525 37.2927 15.7022C37.2308 15.8519 37.1258 15.9799 36.9911 16.0699C36.8564 16.1599 36.698 16.208 36.536 16.208C36.4285 16.2081 36.322 16.1871 36.2226 16.146C36.1233 16.105 36.033 16.0447 35.9569 15.9688C35.8809 15.8928 35.8205 15.8026 35.7793 15.7032C35.7382 15.6039 35.717 15.4975 35.717 15.39ZM15.038 3.15C15.2 3.15 15.3583 3.10196 15.493 3.01197C15.6277 2.92197 15.7327 2.79406 15.7947 2.64441C15.8567 2.49476 15.8729 2.33008 15.8413 2.17121C15.8097 2.01234 15.7317 1.8664 15.6171 1.75186C15.5026 1.63733 15.3566 1.55934 15.1978 1.52774C15.0389 1.49614 14.8742 1.51236 14.7246 1.57434C14.5749 1.63633 14.447 1.7413 14.357 1.87598C14.267 2.01066 14.219 2.16901 14.219 2.331C14.219 2.54821 14.3053 2.75654 14.4589 2.91013C14.6125 3.06372 14.8208 3.15 15.038 3.15Z" fill="white"/>
<path fill-rule="evenodd" clip-rule="evenodd" d="M10.635 11.546C11.6362 18.5238 14.8468 24.9973 19.796 30.017C24.7451 24.9972 27.9557 18.5238 28.957 11.546C22.9638 9.87648 16.6283 9.87648 10.635 11.546Z" fill="#4BA735"/>
<path d="M53.215 13.328L51.983 12.764C50.426 12.064 49.595 11.341 49.595 9.95197C49.6068 9.61436 49.6873 9.28269 49.8317 8.97727C49.9761 8.67185 50.1812 8.39909 50.4346 8.17566C50.688 7.95224 50.9842 7.78287 51.3053 7.67786C51.6264 7.57285 51.9655 7.53444 52.302 7.56498C52.9108 7.5628 53.5134 7.68672 54.072 7.92896L54.572 11.019H56.981L57.195 7.33997C55.6997 6.43649 53.9797 5.97373 52.233 6.00498C48.254 6.00498 45.707 7.91896 45.707 11.071C45.707 13.977 47.488 15.538 50.584 16.948L51.696 17.456C53.279 18.156 53.962 18.788 53.962 20.173C53.962 21.596 52.952 22.673 51.082 22.673C50.2021 22.6826 49.3287 22.5216 48.51 22.199L47.989 18.956H45.542L45.384 22.856C47.1333 23.7988 49.0973 24.2718 51.084 24.229C55.572 24.229 57.944 22.035 57.944 18.937C57.944 16.285 56.567 14.837 53.215 13.328Z" fill="#4BA735"/>
<path d="M71.263 22.253C70.886 22.253 70.67 22.004 70.67 21.485V15.5959C70.67 12.0789 69.338 10.655 65.97 10.655C62.188 10.655 60.07 12.135 59.936 14.321C60.0156 14.7203 60.2406 15.0759 60.5675 15.3188C60.8943 15.5618 61.2996 15.6748 61.705 15.636C62.717 15.636 63.566 14.936 63.632 13.185L63.751 12.0439C63.9905 12.0191 64.2312 12.0067 64.472 12.007C66.148 12.007 66.599 12.694 66.599 15.021V15.8799C65.857 16.0799 65.135 16.274 64.599 16.431C60.55 17.604 59.516 18.918 59.516 20.787C59.4847 21.2434 59.553 21.7011 59.7162 22.1285C59.8794 22.5559 60.1336 22.9427 60.4611 23.2621C60.7886 23.5815 61.1815 23.8259 61.6129 23.9783C62.0442 24.1308 62.5035 24.1876 62.959 24.145C64.752 24.145 65.582 23.426 66.735 22.216C66.9132 22.8177 67.2965 23.3379 67.8185 23.6863C68.3404 24.0347 68.968 24.1893 69.592 24.123C70.2651 24.1957 70.943 24.0394 71.5164 23.6794C72.0897 23.3195 72.525 22.7768 72.752 22.139L72.052 21.675C71.752 22.111 71.539 22.253 71.263 22.253ZM64.982 22.0229C64.096 22.0229 63.404 21.415 63.404 20.099C63.419 19.5124 63.6159 18.9449 63.9676 18.4751C64.3193 18.0053 64.8084 17.6566 65.367 17.477C65.7699 17.3026 66.183 17.1526 66.604 17.028V21.2939C66.1587 21.7094 65.5883 21.9657 64.982 22.0229Z" fill="#4BA735"/>
<path d="M79.804 6.421C79.9288 6.21732 80.0749 6.02757 80.24 5.85499L80.461 6.16398C81.186 7.48898 81.934 8.03599 82.818 8.03599C83.0587 8.05774 83.3012 8.02865 83.53 7.9506C83.7587 7.87255 83.9684 7.74728 84.1456 7.58292C84.3228 7.41857 84.4635 7.21878 84.5585 6.99656C84.6535 6.77433 84.7006 6.53462 84.697 6.29298C84.378 4.87798 83.02 4.40897 81.558 4.40897C79.9246 4.39111 78.3491 5.01355 77.169 6.14298C75.8478 7.44992 75.0685 9.20735 74.987 11.064L73.232 11.286V12.851H74.927V18.228C74.927 19.561 74.909 20.893 74.881 22.228L73.43 22.522V23.744H81.175V22.521L79.155 22.092C79.129 20.804 79.112 19.516 79.112 18.229V12.852H81.864V11.052H79.046C78.98 8.91298 79.173 7.46 79.804 6.421Z" fill="#4BA735"/>
<path d="M94.8149 16.201C94.8149 13.024 92.8509 10.655 89.3879 10.655C88.4932 10.6273 87.6022 10.783 86.7698 11.1124C85.9375 11.4419 85.1813 11.9382 84.5478 12.5707C83.9143 13.2032 83.417 13.9587 83.0863 14.7906C82.7556 15.6224 82.5986 16.5132 82.6249 17.408C82.6249 21.646 85.345 24.144 89.167 24.144C90.2838 24.2249 91.3999 23.978 92.3784 23.4335C93.3568 22.889 94.155 22.0707 94.675 21.079L93.7679 20.227C93.3683 20.6751 92.8777 21.0326 92.3287 21.2758C91.7798 21.5189 91.1853 21.6421 90.585 21.637C88.755 21.637 87.254 20.38 87.059 17.614H94.6689C94.7761 17.1509 94.8252 16.6762 94.8149 16.201ZM89.3149 16.228H87.051C87.178 13.039 88.108 12.007 89.124 12.007C90.077 12.007 90.902 12.861 90.902 14.585C90.9 15.756 90.5759 16.223 89.3149 16.223V16.228Z" fill="#4BA735"/>
<path d="M104.489 21.414C104.093 21.7638 103.591 21.9697 103.064 21.998C102.285 21.998 101.726 21.439 101.726 20.206V12.858H104.478V11.058H101.738L101.784 7.37298H99.105L97.774 11.045L95.847 11.294V12.858H97.541V17.858C97.541 18.882 97.515 19.585 97.515 20.499C97.515 23.089 98.909 24.148 101.29 24.148C102.066 24.2163 102.845 24.0533 103.529 23.6796C104.213 23.3059 104.77 22.7381 105.132 22.048L104.489 21.414Z" fill="#4BA735"/>
<path d="M118.988 11.049H114.031V12.196L115.769 12.508L113.263 19.608L110.7 12.508L112.473 12.188V11.049H104.997V12.196L106.232 12.41L111.473 24.745V24.759C111.094 25.8754 110.485 26.8997 109.684 27.765L109.513 27.515C109.278 27.1306 108.945 26.8154 108.548 26.6015C108.152 26.3875 107.705 26.2825 107.255 26.297C106.748 26.2605 106.246 26.4131 105.846 26.7252C105.445 27.0373 105.174 27.4869 105.086 27.987C105.221 28.5897 105.571 29.1227 106.07 29.4868C106.569 29.8509 107.183 30.0212 107.798 29.966C110.235 29.966 111.422 28.179 112.714 24.817L117.469 12.463L118.996 12.196L118.988 11.049Z" fill="#4BA735"/>
<path d="M131.982 22.216C131.286 22.5461 130.528 22.7221 129.758 22.732C126.979 22.732 124.614 20.486 124.614 15.138C124.614 9.77097 127.078 7.48795 129.885 7.48795C130.541 7.48825 131.187 7.64529 131.77 7.94595L132.516 11.375H134.516L134.411 7.30197C132.841 6.42383 131.067 5.97539 129.268 6.00195C124.337 6.00195 119.968 8.90197 119.968 15.117C119.968 21.251 124.032 24.232 129.09 24.232C131.011 24.2621 132.909 23.8023 134.603 22.896L134.708 18.861H132.708L131.982 22.216Z" fill="white"/>
<path d="M142.837 10.655C141.95 10.6214 141.066 10.7717 140.24 11.0965C139.414 11.4212 138.664 11.9135 138.038 12.5421C137.412 13.1708 136.922 13.9223 136.6 14.7494C136.278 15.5765 136.131 16.4613 136.168 17.348C136.168 21.385 138.737 24.148 142.837 24.148C146.903 24.148 149.506 21.448 149.506 17.348C149.546 16.4603 149.402 15.574 149.081 14.7453C148.761 13.9165 148.271 13.1635 147.644 12.5341C147.017 11.9046 146.266 11.4126 145.438 11.0891C144.611 10.7656 143.725 10.6177 142.837 10.655ZM142.837 22.773C141.353 22.773 140.615 21.151 140.615 17.405C140.615 13.678 141.352 12.026 142.837 12.026C144.322 12.026 145.059 13.677 145.059 17.405C145.059 21.151 144.307 22.773 142.837 22.773Z" fill="white"/>
<path d="M164.532 18.232V15.172C164.532 12.142 163.02 10.655 160.743 10.655C159.921 10.6627 159.112 10.8645 158.382 11.2438C157.652 11.6232 157.022 12.1693 156.543 12.838L156.387 10.938L155.937 10.6559L150.755 12.402V13.435L152.364 13.671C152.416 14.721 152.442 15.271 152.442 16.714V18.232C152.442 19.332 152.43 20.932 152.406 22.218L150.989 22.524V23.746H157.9V22.5229L156.665 22.261C156.64 20.97 156.628 19.348 156.628 18.231V14.159C157.256 13.6026 158.048 13.2638 158.884 13.193C159.929 13.193 160.351 13.793 160.351 15.476V18.231C160.351 19.369 160.339 20.952 160.315 22.222L158.955 22.522V23.744H165.884V22.5229L164.572 22.2549C164.545 20.9799 164.532 19.379 164.532 18.232Z" fill="white"/>
<path d="M180.708 18.232V15.172C180.708 12.142 179.196 10.655 176.919 10.655C176.097 10.6627 175.288 10.8645 174.558 11.2438C173.828 11.6232 173.198 12.1693 172.719 12.838L172.563 10.938L172.113 10.6559L166.931 12.402V13.435L168.539 13.671C168.591 14.721 168.618 15.271 168.618 16.714V18.232C168.618 19.332 168.606 20.932 168.582 22.218L167.165 22.524V23.746H174.076V22.5229L172.84 22.261C172.815 20.97 172.803 19.348 172.803 18.231V14.159C173.431 13.6028 174.222 13.264 175.058 13.193C176.103 13.193 176.525 13.793 176.525 15.476V18.231C176.525 19.369 176.513 20.952 176.489 22.222L175.129 22.522V23.744H182.059V22.5229L180.747 22.2549C180.72 20.9799 180.708 19.379 180.708 18.232Z" fill="white"/>
<path d="M195.547 16.201C195.547 13.024 193.583 10.655 190.121 10.655C189.226 10.6272 188.335 10.7827 187.503 11.1121C186.67 11.4415 185.914 11.9378 185.28 12.5703C184.647 13.2029 184.149 13.9583 183.818 14.7903C183.488 15.6222 183.331 16.5131 183.357 17.408C183.357 21.646 186.078 24.144 189.899 24.144C191.016 24.225 192.132 23.9781 193.11 23.4336C194.089 22.8892 194.887 22.0708 195.407 21.079L194.5 20.227C194.1 20.6751 193.609 21.0327 193.06 21.2759C192.511 21.519 191.917 21.6421 191.316 21.637C189.486 21.637 187.985 20.3799 187.79 17.6139H195.4C195.508 17.1509 195.557 16.6763 195.547 16.201ZM190.047 16.228H187.783C187.91 13.039 188.84 12.007 189.856 12.007C190.809 12.007 191.635 12.861 191.635 14.585C191.635 15.756 191.308 16.223 190.048 16.223L190.047 16.228Z" fill="white"/>
<path d="M204.567 12.007C204.737 12.007 204.9 12.017 205.06 12.032L205.23 13.3589C205.357 15.2089 206.21 15.848 207.247 15.848C207.659 15.879 208.068 15.7563 208.395 15.5034C208.721 15.2506 208.943 14.8856 209.016 14.479C208.827 12.384 206.883 10.6559 204.11 10.6559C200.19 10.6559 197.017 13.143 197.017 17.436C197.017 21.851 199.976 24.145 203.555 24.145C204.668 24.2268 205.779 23.9684 206.741 23.4041C207.703 22.8397 208.471 21.996 208.943 20.985L208.029 20.177C207.678 20.6278 207.23 20.9934 206.719 21.2465C206.207 21.4995 205.644 21.6334 205.073 21.638C202.873 21.638 201.414 19.978 201.414 16.953C201.412 13.402 203.059 12.007 204.567 12.007Z" fill="white"/>
<path d="M218.511 21.414C218.115 21.7641 217.613 21.97 217.085 21.998C216.306 21.998 215.747 21.439 215.747 20.206V12.858H218.5V11.058H215.76L215.806 7.37298H213.127L211.795 11.045L209.868 11.294V12.858H211.562V17.858C211.562 18.882 211.535 19.585 211.535 20.499C211.535 23.089 212.93 24.148 215.31 24.148C216.086 24.2164 216.865 24.0535 217.549 23.6797C218.233 23.306 218.79 22.7382 219.152 22.048L218.511 21.414Z" fill="white"/>
<path d="M45.987 31.484H48.609V31.97H46.57V33.399H48.29V33.892H46.57V35.543H48.679V36.035H45.987V31.484Z" fill="white"/>
<path d="M52.556 32.663H53.028L53.077 33.148H53.098C53.2374 32.9807 53.4098 32.8439 53.6044 32.746C53.7989 32.6481 54.0115 32.5913 54.229 32.579C54.936 32.579 55.256 33.037 55.256 33.897V36.033H54.687V33.973C54.687 33.342 54.493 33.073 54.049 33.073C53.702 33.073 53.466 33.253 53.126 33.593V36.035H52.557L52.556 32.663Z" fill="white"/>
<path d="M59.243 35.272C59.5141 35.5214 59.8667 35.6636 60.235 35.672C60.679 35.672 60.901 35.436 60.901 35.145C60.901 34.798 60.501 34.645 60.131 34.507C59.652 34.334 59.125 34.107 59.125 33.536C59.125 32.995 59.555 32.579 60.283 32.579C60.6652 32.5837 61.0345 32.7184 61.33 32.961L61.059 33.322C60.8437 33.1377 60.5722 33.032 60.289 33.022C59.866 33.022 59.672 33.251 59.672 33.508C59.672 33.82 60.04 33.945 60.421 34.091C60.907 34.271 61.448 34.473 61.448 35.111C61.448 35.659 61.011 36.117 60.213 36.117C59.7541 36.1085 59.3116 35.9446 58.958 35.652L59.243 35.272Z" fill="white"/>
<path d="M65.174 32.664H65.75V34.724C65.75 35.355 65.937 35.624 66.381 35.624C66.728 35.624 66.971 35.451 67.29 35.055V32.662H67.859V36.033H67.387L67.338 35.506H67.317C67.1915 35.6863 67.0261 35.8353 66.8335 35.9411C66.641 36.0469 66.4265 36.1067 66.207 36.116C65.493 36.116 65.173 35.658 65.173 34.798L65.174 32.664Z" fill="white"/>
<path d="M71.978 32.663H72.45L72.499 33.273H72.52C72.602 33.0817 72.7343 32.9162 72.9028 32.794C73.0713 32.6718 73.2697 32.5975 73.477 32.579C73.601 32.5753 73.7243 32.5992 73.838 32.649L73.727 33.149C73.6224 33.1117 73.512 33.093 73.401 33.094C73.117 33.094 72.777 33.302 72.548 33.871V36.035H71.979L71.978 32.663Z" fill="white"/>
<path d="M77.264 31.603C77.2783 31.5083 77.3261 31.422 77.3987 31.3596C77.4712 31.2972 77.5638 31.2628 77.6595 31.2628C77.7552 31.2628 77.8477 31.2972 77.9203 31.3596C77.9929 31.422 78.0406 31.5083 78.055 31.603C78.0406 31.6976 77.9929 31.784 77.9203 31.8464C77.8477 31.9088 77.7552 31.9431 77.6595 31.9431C77.5638 31.9431 77.4712 31.9088 77.3987 31.8464C77.3261 31.784 77.2783 31.6976 77.264 31.603ZM77.364 32.664H77.933V36.035H77.37L77.364 32.664Z" fill="white"/>
<path d="M82.057 32.663H82.529L82.578 33.148H82.599C82.7385 32.9807 82.9109 32.8439 83.1054 32.7461C83.3 32.6482 83.5126 32.5913 83.73 32.579C84.438 32.579 84.757 33.037 84.757 33.897V36.033H84.188V33.973C84.188 33.342 83.994 33.073 83.55 33.073C83.203 33.073 82.967 33.253 82.627 33.593V36.035H82.058L82.057 32.663Z" fill="white"/>
<path d="M89.07 35.917V35.891C88.9761 35.8342 88.8989 35.7536 88.8462 35.6574C88.7935 35.5611 88.7672 35.4527 88.77 35.343C88.7771 35.2172 88.8142 35.0949 88.8782 34.9863C88.9423 34.8778 89.0313 34.7861 89.138 34.719V34.691C88.9426 34.5314 88.8029 34.3138 88.7393 34.0696C88.6756 33.8255 88.6912 33.5674 88.7838 33.3327C88.8764 33.098 89.0412 32.8987 89.2544 32.7638C89.4676 32.6288 89.7182 32.5652 89.97 32.582C90.133 32.5805 90.295 32.6086 90.448 32.665H91.62V33.102H90.926C91.1065 33.2875 91.2062 33.5371 91.203 33.796C91.2054 33.956 91.1746 34.1148 91.1126 34.2622C91.0506 34.4097 90.9587 34.5427 90.8426 34.6529C90.7265 34.763 90.5888 34.8479 90.4383 34.9021C90.2878 34.9564 90.1277 34.9788 89.968 34.968C89.7923 34.967 89.6191 34.9267 89.461 34.85C89.3968 34.8956 89.3439 34.9554 89.3066 35.0248C89.2693 35.0942 89.2486 35.1712 89.246 35.25C89.246 35.465 89.385 35.618 89.846 35.618H90.498C91.282 35.618 91.677 35.861 91.677 36.418C91.677 37.042 91.018 37.583 89.971 37.583C89.145 37.583 88.577 37.257 88.577 36.674C88.5918 36.5174 88.6444 36.3666 88.7303 36.2348C88.8162 36.1029 88.9328 35.9939 89.07 35.917ZM90.055 37.193C90.7 37.193 91.123 36.86 91.123 36.506C91.123 36.194 90.88 36.09 90.443 36.09H89.86C89.7125 36.0911 89.5655 36.0722 89.423 36.034C89.323 36.0932 89.2392 36.1761 89.1787 36.2753C89.1182 36.3745 89.0829 36.487 89.076 36.603C89.077 36.964 89.445 37.191 90.055 37.191V37.193ZM90.686 33.78C90.6959 33.6802 90.6848 33.5795 90.6534 33.4843C90.622 33.3891 90.571 33.3015 90.5037 33.2272C90.4364 33.1528 90.3542 33.0935 90.2626 33.0528C90.1709 33.0122 90.0718 32.9912 89.9715 32.9912C89.8712 32.9912 89.7721 33.0122 89.6804 33.0528C89.5888 33.0935 89.5066 33.1528 89.4393 33.2272C89.372 33.3015 89.321 33.3891 89.2896 33.4843C89.2582 33.5795 89.2471 33.6802 89.257 33.78C89.2444 33.8813 89.2535 33.984 89.2836 34.0815C89.3138 34.179 89.3643 34.269 89.4319 34.3455C89.4994 34.422 89.5825 34.4832 89.6755 34.5252C89.7686 34.5671 89.8694 34.5888 89.9715 34.5888C90.0735 34.5888 90.1744 34.5671 90.2675 34.5252C90.3605 34.4832 90.4435 34.422 90.5111 34.3455C90.5787 34.269 90.6292 34.179 90.6594 34.0815C90.6895 33.984 90.6986 33.8813 90.686 33.78Z" fill="white"/>
<path d="M99.267 31.484H99.867L100.346 33.96C100.436 34.453 100.526 34.938 100.616 35.431H100.644C100.744 34.939 100.852 34.446 100.963 33.96L101.594 31.484H102.121L102.752 33.96C102.852 34.439 102.967 34.938 103.078 35.431H103.106C103.196 34.939 103.279 34.446 103.363 33.96L103.842 31.484H104.404L103.46 36.035H102.76L102.073 33.295C101.997 32.941 101.92 32.615 101.858 32.261H101.83C101.754 32.615 101.677 32.941 101.601 33.295L100.921 36.035H100.234L99.267 31.484Z" fill="white"/>
<path d="M109.409 32.58C109.768 32.5349 110.132 32.6002 110.453 32.7671C110.774 32.9339 111.037 33.1945 111.206 33.5143C111.376 33.834 111.444 34.1977 111.402 34.557C111.36 34.9164 111.209 35.2545 110.97 35.5262C110.731 35.798 110.415 35.9907 110.064 36.0787C109.713 36.1666 109.344 36.1457 109.005 36.0187C108.666 35.8917 108.374 35.6646 108.168 35.3677C107.961 35.0707 107.849 34.7178 107.848 34.356C107.825 34.1351 107.848 33.912 107.916 33.7005C107.983 33.489 108.094 33.2937 108.24 33.1269C108.387 32.9602 108.566 32.8255 108.768 32.7314C108.969 32.6372 109.187 32.5857 109.409 32.58ZM109.409 35.646C109.992 35.646 110.38 35.126 110.38 34.356C110.38 33.586 109.992 33.056 109.409 33.056C108.826 33.056 108.438 33.583 108.438 34.356C108.438 35.129 108.833 35.646 109.409 35.646Z" fill="white"/>
<path d="M114.84 32.663H115.312L115.361 33.273H115.382C115.464 33.0817 115.596 32.9162 115.765 32.794C115.933 32.6718 116.132 32.5975 116.339 32.579C116.463 32.5753 116.586 32.5992 116.7 32.649L116.589 33.149C116.484 33.1117 116.374 33.0931 116.263 33.094C115.979 33.094 115.639 33.302 115.41 33.871V36.035H114.841L114.84 32.663Z" fill="white"/>
<path d="M120.229 31.101H120.791V34.445H120.812L122.248 32.669H122.879L121.748 34.0219L123.031 36.041H122.407L121.422 34.418L120.791 35.153V36.041H120.229V31.101Z" fill="white"/>
<path d="M127.215 36.319V37.457H126.646V32.664H127.118L127.167 33.052H127.188C127.481 32.7752 127.861 32.6084 128.263 32.58C129.13 32.58 129.595 33.2529 129.595 34.2999C129.595 35.4449 128.908 36.118 128.138 36.118C127.791 36.0964 127.462 35.9599 127.201 35.73L127.215 36.319ZM128.041 35.639C128.596 35.639 129.005 35.1329 129.005 34.2999C129.005 33.5579 128.755 33.058 128.117 33.058C127.771 33.0954 127.451 33.2583 127.217 33.516V35.285C127.442 35.4943 127.733 35.6194 128.04 35.639H128.041Z" fill="white"/>
<path d="M133.478 31.101H134.047V35.401C134.047 35.581 134.124 35.651 134.207 35.651C134.249 35.6519 134.291 35.6472 134.332 35.637L134.408 36.067C134.305 36.1088 134.193 36.1275 134.082 36.122C133.652 36.122 133.482 35.851 133.482 35.359L133.478 31.101Z" fill="white"/>
<path d="M140.136 33.898C140.136 33.468 139.99 33.052 139.442 33.052C139.078 33.0685 138.728 33.1944 138.436 33.413L138.207 33.013C138.598 32.7445 139.058 32.5929 139.532 32.576C140.358 32.576 140.704 33.124 140.704 33.964V36.031H140.232L140.184 35.631H140.17C139.864 35.9157 139.47 36.0871 139.053 36.117C138.923 36.1275 138.792 36.1102 138.67 36.0663C138.547 36.0224 138.435 35.9528 138.341 35.8623C138.247 35.7718 138.174 35.6624 138.126 35.5413C138.077 35.4202 138.055 35.2902 138.061 35.16C138.063 34.425 138.701 34.058 140.136 33.898ZM139.213 35.66C139.567 35.6339 139.898 35.4724 140.136 35.209V34.272C139.005 34.411 138.624 34.688 138.624 35.118C138.62 35.1946 138.632 35.2712 138.661 35.3422C138.69 35.4133 138.734 35.4771 138.79 35.529C138.847 35.5809 138.914 35.6196 138.987 35.6422C139.061 35.6649 139.138 35.671 139.214 35.66H139.213Z" fill="white"/>
<path d="M146.137 32.58C146.319 32.5787 146.5 32.6134 146.669 32.682C146.838 32.7506 146.992 32.8519 147.122 32.98L146.838 33.348C146.657 33.1659 146.414 33.0588 146.158 33.048C145.548 33.048 145.104 33.575 145.104 34.348C145.104 35.121 145.527 35.6379 146.145 35.6379C146.442 35.6263 146.723 35.5052 146.936 35.298L147.193 35.673C146.892 35.948 146.501 36.1033 146.093 36.1099C145.869 36.1111 145.648 36.0649 145.443 35.9742C145.239 35.8836 145.056 35.7506 144.907 35.5842C144.757 35.4177 144.645 35.2214 144.577 35.0084C144.509 34.7953 144.487 34.5702 144.512 34.348C144.493 34.1231 144.522 33.8968 144.595 33.6834C144.668 33.47 144.784 33.274 144.937 33.1079C145.09 32.9418 145.275 32.8091 145.482 32.7183C145.688 32.6274 145.911 32.5803 146.137 32.58Z" fill="white"/>
<path d="M152.027 32.58C152.887 32.58 153.373 33.1979 153.373 34.1619C153.374 34.2663 153.367 34.3707 153.352 34.474H151.076C151.067 34.6268 151.09 34.7797 151.143 34.9235C151.195 35.0672 151.276 35.1987 151.382 35.3098C151.487 35.4209 151.614 35.5093 151.755 35.5695C151.895 35.6297 152.047 35.6605 152.2 35.66C152.5 35.6564 152.791 35.5646 153.039 35.396L153.239 35.771C152.911 35.9936 152.525 36.1144 152.129 36.118C151.696 36.0772 151.292 35.8792 150.995 35.5615C150.697 35.2438 150.526 34.8283 150.514 34.3932C150.502 33.9581 150.649 33.5336 150.928 33.1996C151.207 32.8656 151.599 32.6452 152.029 32.58H152.027ZM152.873 34.099C152.873 33.412 152.568 33.031 152.041 33.031C151.773 33.0516 151.524 33.1736 151.343 33.3722C151.163 33.5707 151.065 33.8307 151.07 34.099H152.873Z" fill="white"/>
<path d="M161.141 31.484H161.741L162.22 33.96C162.31 34.453 162.4 34.938 162.491 35.431H162.519C162.619 34.939 162.727 34.446 162.838 33.96L163.469 31.484H163.996L164.627 33.96C164.727 34.439 164.842 34.938 164.953 35.431H164.981C165.071 34.939 165.154 34.446 165.238 33.96L165.717 31.484H166.271L165.328 36.035H164.628L163.941 33.295C163.865 32.941 163.788 32.615 163.726 32.261H163.698C163.622 32.615 163.545 32.941 163.469 33.295L162.789 36.035H162.102L161.141 31.484Z" fill="white"/>
<path d="M171.234 32.58C172.094 32.58 172.58 33.1979 172.58 34.1619C172.581 34.2663 172.574 34.3707 172.559 34.474H170.284C170.275 34.6268 170.298 34.7797 170.35 34.9235C170.403 35.0672 170.485 35.1987 170.59 35.3098C170.695 35.4209 170.822 35.5093 170.963 35.5695C171.103 35.6297 171.255 35.6605 171.408 35.66C171.707 35.6564 171.999 35.5646 172.247 35.396L172.447 35.771C172.119 35.9936 171.733 36.1144 171.337 36.118C170.904 36.0772 170.5 35.8792 170.203 35.5615C169.905 35.2438 169.734 34.8283 169.722 34.3932C169.71 33.9581 169.857 33.5336 170.136 33.1996C170.415 32.8656 170.807 32.6452 171.237 32.58H171.234ZM172.08 34.099C172.08 33.412 171.775 33.031 171.247 33.031C170.979 33.0516 170.73 33.1736 170.549 33.3722C170.369 33.5707 170.271 33.8307 170.276 34.099H172.08Z" fill="white"/>
<path d="M176.395 31.101H176.964V35.401C176.964 35.581 177.041 35.651 177.124 35.651C177.166 35.6519 177.208 35.6472 177.249 35.637L177.325 36.067C177.222 36.1088 177.11 36.1276 176.999 36.122C176.569 36.122 176.399 35.851 176.399 35.359L176.395 31.101Z" fill="white"/>
<path d="M181.146 31.101H181.715V35.401C181.715 35.581 181.791 35.651 181.875 35.651C181.917 35.6519 181.959 35.6472 182 35.637L182.076 36.067C181.973 36.1088 181.861 36.1276 181.75 36.122C181.32 36.122 181.15 35.851 181.15 35.359L181.146 31.101Z" fill="white"/>
<path d="M185.613 34.079H187.213V34.5159H185.613V34.079Z" fill="white"/>
<path d="M191.038 31.101H191.607V32.447L191.593 33.057C191.877 32.779 192.251 32.6116 192.647 32.585C193.521 32.585 193.986 33.258 193.986 34.299C193.986 35.45 193.299 36.123 192.529 36.123C192.169 36.1028 191.827 35.9554 191.565 35.707H191.544L191.496 36.04H191.038V31.101ZM192.432 35.645C192.987 35.645 193.396 35.139 193.396 34.306C193.396 33.564 193.146 33.065 192.508 33.065C192.161 33.0994 191.84 33.2629 191.608 33.523V35.292C191.834 35.5004 192.125 35.6235 192.432 35.64V35.645Z" fill="white"/>
<path d="M199.132 32.58C199.992 32.58 200.478 33.1979 200.478 34.1619C200.479 34.2663 200.472 34.3707 200.457 34.474H198.182C198.173 34.6268 198.196 34.7797 198.248 34.9235C198.301 35.0672 198.382 35.1987 198.488 35.3098C198.593 35.4209 198.72 35.5093 198.861 35.5695C199.001 35.6297 199.153 35.6605 199.306 35.66C199.606 35.6566 199.898 35.5647 200.146 35.396L200.346 35.771C200.018 35.9936 199.632 36.1144 199.236 36.118C198.803 36.0772 198.399 35.8792 198.102 35.5615C197.804 35.2438 197.633 34.8283 197.621 34.3932C197.609 33.9581 197.756 33.5336 198.035 33.1996C198.314 32.8656 198.706 32.6452 199.136 32.58H199.132ZM199.978 34.099C199.978 33.412 199.673 33.031 199.146 33.031C198.878 33.0516 198.629 33.1736 198.448 33.3722C198.268 33.5707 198.17 33.8307 198.175 34.099H199.978Z" fill="white"/>
<path d="M204.19 31.603C204.204 31.5083 204.252 31.422 204.325 31.3596C204.397 31.2972 204.49 31.2628 204.586 31.2628C204.681 31.2628 204.774 31.2972 204.846 31.3596C204.919 31.422 204.967 31.5083 204.981 31.603C204.967 31.6976 204.919 31.784 204.846 31.8464C204.774 31.9088 204.681 31.9431 204.586 31.9431C204.49 31.9431 204.397 31.9088 204.325 31.8464C204.252 31.784 204.204 31.6976 204.19 31.603ZM204.29 32.664H204.859V36.035H204.29V32.664Z" fill="white"/>
<path d="M208.983 32.663H209.455L209.504 33.148H209.525C209.664 32.9807 209.837 32.8439 210.031 32.746C210.226 32.6481 210.439 32.5913 210.656 32.579C211.364 32.579 211.683 33.037 211.683 33.897V36.033H211.114V33.973C211.114 33.342 210.92 33.073 210.476 33.073C210.129 33.073 209.893 33.253 209.553 33.593V36.035H208.984L208.983 32.663Z" fill="white"/>
<path d="M215.995 35.917V35.891C215.901 35.8342 215.824 35.7536 215.771 35.6574C215.718 35.5611 215.692 35.4527 215.695 35.343C215.702 35.2172 215.739 35.0949 215.803 34.9863C215.867 34.8778 215.956 34.7861 216.063 34.719V34.691C215.868 34.5314 215.728 34.3138 215.664 34.0696C215.601 33.8255 215.616 33.5674 215.709 33.3327C215.801 33.098 215.966 32.8987 216.179 32.7638C216.393 32.6288 216.643 32.5652 216.895 32.582C217.058 32.5804 217.221 32.6085 217.374 32.665H218.546V33.102H217.852C218.033 33.2875 218.132 33.5371 218.129 33.796C218.131 33.956 218.101 34.1148 218.039 34.2622C217.977 34.4097 217.885 34.5427 217.768 34.6529C217.652 34.763 217.515 34.8479 217.364 34.9021C217.214 34.9564 217.054 34.9788 216.894 34.968C216.719 34.9668 216.546 34.9265 216.388 34.85C216.324 34.8956 216.271 34.9554 216.234 35.0248C216.196 35.0942 216.175 35.1712 216.173 35.25C216.173 35.465 216.312 35.618 216.773 35.618H217.425C218.209 35.618 218.604 35.861 218.604 36.418C218.604 37.042 217.945 37.583 216.898 37.583C216.072 37.583 215.504 37.257 215.504 36.674C215.519 36.5175 215.571 36.367 215.656 36.2351C215.742 36.1033 215.858 35.9941 215.995 35.917ZM216.98 37.193C217.625 37.193 218.049 36.86 218.049 36.506C218.049 36.194 217.806 36.09 217.369 36.09H216.786C216.638 36.0911 216.491 36.0722 216.349 36.034C216.249 36.0932 216.165 36.1761 216.105 36.2753C216.044 36.3745 216.009 36.487 216.002 36.603C216.002 36.964 216.37 37.191 216.98 37.191V37.193ZM217.611 33.78C217.621 33.6802 217.61 33.5795 217.578 33.4843C217.547 33.3891 217.496 33.3015 217.429 33.2272C217.361 33.1528 217.279 33.0935 217.188 33.0528C217.096 33.0122 216.997 32.9912 216.896 32.9912C216.796 32.9912 216.697 33.0122 216.605 33.0528C216.514 33.0935 216.432 33.1528 216.364 33.2272C216.297 33.3015 216.246 33.3891 216.215 33.4843C216.183 33.5795 216.172 33.6802 216.182 33.78C216.169 33.8813 216.178 33.984 216.209 34.0815C216.239 34.179 216.289 34.269 216.357 34.3455C216.424 34.422 216.507 34.4832 216.601 34.5252C216.694 34.5671 216.794 34.5888 216.896 34.5888C216.998 34.5888 217.099 34.5671 217.192 34.5252C217.285 34.4832 217.369 34.422 217.436 34.3455C217.504 34.269 217.554 34.179 217.584 34.0815C217.614 33.984 217.624 33.8813 217.611 33.78Z" fill="white"/>
</svg>
